<svg xmlns="http://www.w3.org/2000/svg" viewBox="0 0 356.75 417">
     <path class="cls-1" d="M343.87,186.81s2-3,3-15,3-60.87,3-60.87l6.87-8.81V97.44L353.92,5.1a4,4,0,0,0-4-3.89H190.43V0H32.6a4,4,0,0,0-4,3.82l-5,97.19s-1.36,4.78.43,8.71A8,8,0,0,0,25.62,112l3,71s1,6,5,6,1,45,1,45l-4.32,1.15-.49-.15H26.05a.9.9,0,0,0-.88,1L29,280.11a.9.9,0,0,1-.82,1L11.05,282c-12,1-11,11-11,11l1,30.73a.83.83,0,0,0,.16.47l4.71,6.57a1,1,0,0,1,.15.51v3.09a.85.85,0,0,0,.58.82L28,342.6l.95-.25L35.13,404s3,13,14,13H328.56s11-1,15-10,9-69,9-69l-5-3h5l2-26.69s-9.63-10.6-10.21-10.6c.32-.27.32-.27.41-.5s3.83-60.46,3.83-60.46a.54.54,0,0,0-.54-.58h-9.44l1-49.41ZM225.38,19.67a4,4,0,0,1,4-4h98.06a4,4,0,0,1,4,4V76.75a4,4,0,0,1-4,4H229.38a4,4,0,0,1-4-4Zm-6.16,96H324l3,38.57H226.14l-9.88,18.78ZM45.81,16.55a4.49,4.49,0,0,1,4.49-4.5H211.24a4.49,4.49,0,0,1,4.5,4.5V77.46a4.49,4.49,0,0,1-4.5,4.49H50.3a4.49,4.49,0,0,1-4.49-4.49ZM39.3,154.27l3-38.57H155l2,57.35-4-18.78Zm8.56,107.26a5.67,5.67,0,0,1-5.67-5.67V187.65A5.67,5.67,0,0,1,47.86,182H224.54a5.67,5.67,0,0,1,5.66,5.66v68.21a5.67,5.67,0,0,1-5.66,5.67ZM221.77,270v16.65a1.43,1.43,0,0,1-1.43,1.42H161.72a1.43,1.43,0,0,1-1.42-1.42V270ZM331.44,400.9a2.93,2.93,0,0,1-.22,1.11c-.05.11-.11.2-.15.31l-.46.59,0,0-.14.13-.05,0a2.85,2.85,0,0,1-1.76.62H52.25a2.83,2.83,0,0,1-2.83-2.83V368a5.54,5.54,0,0,0,1.06,3.28l.42.51a5.65,5.65,0,0,0,4.2,1.87H324.55a5.67,5.67,0,0,0,4.62-2.4,5.53,5.53,0,0,0,1.06-3.3V355.27a5.71,5.71,0,0,0-4.3-5.5,6.12,6.12,0,0,0-1.72-.26h4.41a2.8,2.8,0,0,1,1.76.63l.05,0c.05.05.11.09.14.13a2.39,2.39,0,0,1,.38.46l.12.17a3,3,0,0,0,.15.31,3,3,0,0,1,.22,1.11Zm2.41-122.14a5.68,5.68,0,0,1-5.66,5.67H262.38a5.68,5.68,0,0,1-5.66-5.67V172a5.67,5.67,0,0,1,5.66-5.66h65.81a5.67,5.67,0,0,1,5.66,5.66Z"/>
</svg>