<svg xmlns="http://www.w3.org/2000/svg" viewBox="0 0 356.75 417">
     <defs>
          <style>.cls-1{isolation:isolate;}.cls-2{fill:#5b6067;stroke:#010101;stroke-miterlimit:10;}.cls-3{fill:#222426;}.cls-4{fill:#2e3134;}.cls-5{fill:#383b40;}.cls-6{fill:#4e4d4d;}.cls-7{fill:#4f545a;}.cls-8{fill:#1d1619;}.cls-16,.cls-9{fill:#fff;}.cls-10{fill:#e84431;}.cls-11{fill:#db3089;}.cls-12{fill:#f3903d;}.cls-13{fill:#65b3e4;}.cls-14{fill:#44af62;}.cls-15{fill:#f5bd55;}.cls-16{opacity:0.5;mix-blend-mode:lighten;}.cls-17{fill:none;}.cls-18{fill:#010101;}</style>
     </defs>
     <g id="Color">
          <rect class="cls-2" x="42.65" y="182.33" width="188" height="79" rx="5.67" ry="5.67"/>
          <path class="cls-3" d="M218.84,186.61H162.46a6.54,6.54,0,0,0-6.53,6.53v56.38a6.54,6.54,0,0,0,6.53,6.53h56.38a6.54,6.54,0,0,0,6.53-6.53V193.14A6.54,6.54,0,0,0,218.84,186.61Zm4.67,60.78a6.81,6.81,0,0,1-6.8,6.8H164.59a6.81,6.81,0,0,1-6.8-6.8V195.27a6.81,6.81,0,0,1,6.8-6.8h52.12a6.81,6.81,0,0,1,6.8,6.8Z"/>
          <path class="cls-4" d="M216.71,188.76H164.59a6.52,6.52,0,0,0-6.51,6.51v52.12a6.52,6.52,0,0,0,6.51,6.51h52.12a6.52,6.52,0,0,0,6.51-6.51V195.27A6.52,6.52,0,0,0,216.71,188.76Zm4.65,56.5a6.77,6.77,0,0,1-6.78,6.78H166.72a6.77,6.77,0,0,1-6.78-6.78V197.4a6.77,6.77,0,0,1,6.78-6.78h47.86a6.77,6.77,0,0,1,6.78,6.78Z"/>
          <path class="cls-5" d="M214.58,190.9H166.72a6.51,6.51,0,0,0-6.5,6.5v47.86a6.51,6.51,0,0,0,6.5,6.5h47.86a6.51,6.51,0,0,0,6.5-6.5V197.4A6.51,6.51,0,0,0,214.58,190.9Zm4.94,33.1c0,.26-.05.52-.08.78a3.62,3.62,0,0,1-.06.46c0,.35-.1.69-.16,1,0,0,0,0,0,0v16.83a6.77,6.77,0,0,1-6.77,6.77H195.6l-1,.16a3.62,3.62,0,0,1-.46.06l-.78.08a27.48,27.48,0,0,1-5.34,0l-.78-.08a3.62,3.62,0,0,1-.46-.06l-1-.16H168.85a6.77,6.77,0,0,1-6.77-6.77V226.3s0,0,0,0c-.06-.35-.11-.69-.16-1a3.62,3.62,0,0,1-.06-.46c0-.26-.06-.52-.08-.78a27.48,27.48,0,0,1,0-5.34c0-.26.05-.52.08-.78a3.62,3.62,0,0,1,.06-.46c.05-.35.1-.69.16-1,0,0,0,0,0,0V199.53a6.77,6.77,0,0,1,6.77-6.77h16.86l1.08-.17a2.33,2.33,0,0,1,.37,0c.27,0,.55-.07.83-.09a27.28,27.28,0,0,1,5.32,0c.28,0,.56,0,.83.09a2.33,2.33,0,0,1,.37,0l1.08.17h16.86a6.77,6.77,0,0,1,6.77,6.77v16.83s0,0,0,0c.06.35.11.69.16,1a3.62,3.62,0,0,1,.06.46c0,.26.06.52.08.78a27.48,27.48,0,0,1,0,5.34Z"/>
          <path class="cls-6" d="M184.27,193h-.05l-1.38.35-1.34.41-.2.07-1,.36-.52.2c-.31.12-.62.25-.92.39a.56.56,0,0,0-.16.07H171a6.76,6.76,0,0,0-6.76,6.76v7.74c-.18.4-.35.8-.51,1.21a1.08,1.08,0,0,0-.11.28c-.14.36-.28.73-.41,1.1a1.06,1.06,0,0,0-.06.19c-.14.44-.28.89-.41,1.34s-.24.91-.35,1.38a.09.09,0,0,0,0,0V199.53a6.5,6.5,0,0,1,6.49-6.49Z"/>
          <path class="cls-6" d="M184.27,249.62H168.85a6.5,6.5,0,0,1-6.49-6.49V227.71a.09.09,0,0,0,0,0c.11.47.23.93.35,1.38s.27.9.41,1.34a1.06,1.06,0,0,0,.06.19c.13.37.27.74.41,1.1a1.08,1.08,0,0,0,.11.28,11.51,11.51,0,0,0,.51,1.21V241a6.76,6.76,0,0,0,6.76,6.76h7.73a.56.56,0,0,0,.16.07c.3.14.61.27.92.39l.52.2q.49.2,1,.36l.2.07,1.34.41,1.38.35Z"/>
          <path class="cls-6" d="M218.94,227.71v15.42a6.5,6.5,0,0,1-6.49,6.49H197.08l1.38-.35,1.34-.41.2-.07q.5-.17,1-.36l.52-.2c.31-.12.62-.25.92-.39a.56.56,0,0,0,.16-.07h7.73a6.76,6.76,0,0,0,6.76-6.76v-7.74a11.51,11.51,0,0,0,.51-1.21,1.08,1.08,0,0,0,.11-.28c.14-.36.28-.73.41-1.1a1.06,1.06,0,0,0,.06-.19c.14-.44.28-.89.41-1.34s.24-.91.35-1.38A.09.09,0,0,0,218.94,227.71Z"/>
          <path class="cls-6" d="M218.94,199.53V215a.09.09,0,0,0,0,0c-.11-.47-.23-.93-.35-1.38s-.27-.9-.41-1.34a1.06,1.06,0,0,0-.06-.19c-.13-.37-.27-.74-.41-1.1a1.08,1.08,0,0,0-.11-.28,11.51,11.51,0,0,0-.51-1.21v-7.74a6.76,6.76,0,0,0-6.76-6.76h-7.73a.56.56,0,0,0-.16-.07c-.3-.14-.61-.27-.92-.39l-.52-.2-1-.36-.2-.07-1.34-.41-1.38-.35h15.37A6.5,6.5,0,0,1,218.94,199.53Z"/>
          <path class="cls-7" d="M178.09,195.18c-.34.17-.68.34-1,.52l-.66.36c-.55.3-1.09.63-1.61,1h-1.7a6.75,6.75,0,0,0-6.75,6.75v1.69s0,0,0,0c-.34.52-.67,1.06-1,1.61-.12.22-.25.44-.36.66s-.35.67-.52,1v-7.11a6.49,6.49,0,0,1,6.48-6.48Z"/>
          <path class="cls-7" d="M178.09,247.48H171A6.49,6.49,0,0,1,164.5,241v-7.11c.17.34.34.68.52,1s.24.44.36.66c.31.55.64,1.09,1,1.61v1.7a6.75,6.75,0,0,0,6.75,6.75h1.7c.52.34,1.06.67,1.61,1l.66.36C177.41,247.14,177.75,247.31,178.09,247.48Z"/>
          <path class="cls-7" d="M216.8,233.89V241a6.49,6.49,0,0,1-6.48,6.48h-7.11c.34-.17.68-.34,1-.52l.66-.36c.55-.31,1.09-.64,1.61-1h1.7a6.75,6.75,0,0,0,6.75-6.75v-1.7c.35-.52.68-1.06,1-1.61.12-.22.25-.44.36-.66S216.63,234.23,216.8,233.89Z"/>
          <path class="cls-7" d="M216.8,201.66v7.11c-.17-.34-.34-.68-.52-1s-.24-.44-.36-.66c-.3-.55-.63-1.09-1-1.61,0,0,0,0,0,0v-1.69a6.75,6.75,0,0,0-6.75-6.75h-1.7c-.52-.35-1.06-.68-1.61-1l-.66-.36c-.33-.18-.67-.35-1-.52h7.11A6.49,6.49,0,0,1,216.8,201.66Z"/>
          <path class="cls-8" d="M219.65,221.33a26.23,26.23,0,0,1-.13,2.67c0,.26-.05.52-.08.78a3.62,3.62,0,0,1-.06.46c0,.35-.1.69-.16,1,0,0,0,0,0,0,0,.23-.08.46-.13.69s-.09.44-.14.66a.07.07,0,0,1,0,.06.09.09,0,0,1,0,0c-.11.47-.23.93-.35,1.38s-.27.9-.41,1.34a1.06,1.06,0,0,1-.06.19c-.13.37-.27.74-.41,1.1a1.08,1.08,0,0,1-.11.28c-.16.41-.33.81-.51,1.21-.08.21-.18.42-.28.63s-.34.68-.52,1-.24.44-.36.66c-.31.55-.64,1.09-1,1.61h0l-.29.43h0c-.26.38-.52.75-.8,1.11-.41.55-.84,1.08-1.29,1.6-.22.26-.45.51-.69.76h0c-.47.5-1,1-1.45,1.45l-.77.69c-.52.45-1.05.88-1.6,1.29-.36.28-.73.54-1.11.8h0l-.43.29h0c-.52.34-1.06.67-1.61,1l-.66.36c-.33.18-.67.35-1,.52l-.62.28a.56.56,0,0,1-.16.07c-.3.14-.61.27-.92.39l-.52.2q-.5.2-1,.36l-.2.07-1.34.41-1.38.35H197a.07.07,0,0,1-.06,0l-.66.14c-.23,0-.46.1-.69.13h0l-1,.16a3.62,3.62,0,0,1-.46.06l-.78.08a27.48,27.48,0,0,1-5.34,0l-.78-.08a3.62,3.62,0,0,1-.46-.06l-1-.16h0c-.23,0-.46-.08-.69-.13l-.66-.14a.07.07,0,0,1-.06,0h-.05l-1.38-.35-1.34-.41-.2-.07q-.5-.17-1-.36l-.52-.2c-.31-.12-.62-.25-.92-.39a.56.56,0,0,1-.16-.07l-.62-.28c-.34-.17-.68-.34-1-.52l-.66-.36c-.55-.31-1.09-.64-1.61-1h0l-.43-.29h0c-.38-.26-.75-.52-1.11-.8l-.56-.43-.25-.2-.4-.33-.39-.33-.77-.69c-.5-.47-1-1-1.45-1.45l-.69-.77c-.45-.52-.88-1.05-1.29-1.6-.28-.36-.54-.73-.8-1.11h0l-.29-.43h0c-.34-.52-.67-1.06-1-1.61-.12-.22-.25-.44-.36-.66s-.35-.67-.52-1-.2-.42-.28-.63c-.18-.4-.35-.8-.51-1.21a1.08,1.08,0,0,1-.11-.28c-.14-.36-.28-.73-.41-1.1a1.06,1.06,0,0,1-.06-.19c-.14-.44-.28-.89-.41-1.34s-.24-.91-.35-1.38a.09.09,0,0,1,0,0,.07.07,0,0,1,0-.06c0-.22-.09-.44-.14-.66s-.1-.46-.13-.69c0,0,0,0,0,0-.06-.35-.11-.69-.16-1a3.62,3.62,0,0,1-.06-.46c0-.26-.06-.52-.08-.78a27.48,27.48,0,0,1,0-5.34c0-.26.05-.52.08-.78a3.62,3.62,0,0,1,.06-.46c.05-.35.1-.69.16-1,0,0,0,0,0,0,0-.23.08-.46.13-.69s.09-.44.14-.66a.07.07,0,0,1,0-.06.09.09,0,0,1,0,0c.11-.47.23-.93.35-1.38s.27-.9.41-1.34a1.06,1.06,0,0,1,.06-.19c.13-.37.27-.74.41-1.1a1.08,1.08,0,0,1,.11-.28c.16-.41.33-.81.51-1.21.08-.21.18-.42.28-.63s.34-.68.52-1,.24-.44.36-.66c.31-.55.64-1.09,1-1.61,0,0,0,0,0,0l.29-.43h0c.26-.38.52-.75.8-1.11.41-.55.84-1.08,1.29-1.6l.69-.76h0c.47-.5.95-1,1.45-1.45l.77-.69c.52-.45,1-.88,1.6-1.29.36-.28.73-.54,1.11-.8h0l.43-.29h0c.52-.34,1.06-.67,1.61-1l.66-.36c.33-.18.67-.35,1-.52l.62-.28a.56.56,0,0,1,.16-.07c.3-.14.61-.27.92-.39l.52-.2,1-.36.2-.07,1.34-.41,1.38-.35h.05a.07.07,0,0,1,.06,0l.66-.14c.23,0,.46-.1.69-.13h0l1.08-.17a2.33,2.33,0,0,1,.37,0c.27,0,.55-.07.83-.09a27.28,27.28,0,0,1,5.32,0c.28,0,.56,0,.83.09a2.33,2.33,0,0,1,.37,0l1.08.17h0c.23,0,.46.08.69.13l.66.14a.07.07,0,0,1,.06,0h.05l1.38.35,1.34.41.2.07,1,.36.52.2c.31.12.62.25.92.39a.56.56,0,0,1,.16.07l.62.28c.34.17.68.34,1,.52l.66.36c.55.31,1.09.64,1.61,1h0l.43.29h0c.38.26.75.52,1.11.8a27.78,27.78,0,0,1,2.36,2h0c.5.47,1,.95,1.45,1.45l.69.77c.45.52.88,1,1.29,1.6.28.36.54.73.8,1.11h0l.29.43s0,0,0,0c.34.52.67,1.06,1,1.61.12.22.25.44.36.66s.35.67.52,1,.2.42.28.63c.18.4.35.8.51,1.21a1.08,1.08,0,0,1,.11.28c.14.36.28.73.41,1.1a1.06,1.06,0,0,1,.06.19c.14.44.28.89.41,1.34s.24.91.35,1.38a.09.09,0,0,1,0,0,.07.07,0,0,1,0,.06c.05.22.09.44.14.66s.1.46.13.69c0,0,0,0,0,0,.06.35.11.69.16,1a3.62,3.62,0,0,1,.06.46c0,.26.06.52.08.78A26.23,26.23,0,0,1,219.65,221.33Z"/>
          <rect class="cls-9" x="46.65" y="186.33" width="104" height="70" rx="5.67" ry="5.67"/>
          <polygon class="cls-10" points="46.65 250.33 150.65 250.33 150.65 242.58 46.65 243.33 46.65 250.33"/>
          <path class="cls-11" d="M46.65,250.66a5.67,5.67,0,0,0,5.67,5.67H145a5.67,5.67,0,0,0,5.67-5.67v-.33h-104Z"/>
          <polygon class="cls-12" points="46.65 243.33 150.65 242.58 150.65 234.92 46.65 235.75 46.65 243.33"/>
          <polygon class="cls-13" points="46.65 214.33 46.65 222.33 150.65 221.33 150.65 214.33 46.65 214.33"/>
          <polygon class="cls-14" points="46.65 228.25 150.65 227.71 150.65 221.33 46.65 222.33 46.65 228.25"/>
          <polygon class="cls-15" points="46.65 235.75 150.65 234.92 150.65 227.71 46.65 228.25 46.65 235.75"/>
          <path class="cls-16" d="M198.84,199.67s1.29-2.18,3.06-2.32S214.67,203.79,216,213c0,0-3.55.29-4.68,1.62C211.3,214.63,210.48,207.44,198.84,199.67Z"/>
          <path class="cls-16" d="M169.59,211.23s-1.87-1-3,.21-4,14.19-.13,21c0,0,2-2,3.12-1.92C169.56,230.48,166.75,225.36,169.59,211.23Z"/>
     </g>
     <g id="camera-right">
          <path class="cls-17" d="M220.34,288a1.43,1.43,0,0,0,1.43-1.42V270H188.38V288Z"/>
          <path class="cls-17" d="M190.43,384.57h0l130.2,1,1-9h4l-2,18-3-3-130.2-.52h-2.05v12.67H328.62a2.85,2.85,0,0,0,1.76-.62l.05,0,.14-.13,0,0,.46-.59c0-.11.1-.2.15-.31a2.93,2.93,0,0,0,.22-1.11V352.35a3,3,0,0,0-.22-1.11,3,3,0,0,1-.15-.31l-.12-.17a2.39,2.39,0,0,0-.38-.46s-.09-.08-.14-.13l-.05,0a2.8,2.8,0,0,0-1.76-.63h-4.41a6.12,6.12,0,0,1,1.72.26,5.71,5.71,0,0,1,4.3,5.5v12.64a5.53,5.53,0,0,1-1.06,3.3,5.67,5.67,0,0,1-4.62,2.4H188.38v10.94Z"/>
          <path class="cls-17" d="M224.54,261.53a5.67,5.67,0,0,0,5.66-5.67V187.65a5.67,5.67,0,0,0-5.66-5.66H188.38v79.54Z"/>
          <polygon class="cls-17" points="324.04 115.7 219.22 115.7 216.26 173.06 226.14 154.27 327 154.27 324.04 115.7"/>
          <rect class="cls-17" x="256.72" y="166.32" width="77.13" height="118.11" rx="5.66" ry="5.66"/>
          <rect class="cls-17" x="225.38" y="15.67" width="106.06" height="65.08" rx="4" ry="4"/>
          <path class="cls-18" d="M343.87,186.81s2-3,3-15,3-60.87,3-60.87l6.87-8.81V97.44L353.92,5.1a4,4,0,0,0-4-3.89H190.43V0h-2.05V12.05h22.86a4.49,4.49,0,0,1,4.5,4.5V77.46a4.49,4.49,0,0,1-4.5,4.49H188.38V182h36.16a5.67,5.67,0,0,1,5.66,5.66v68.21a5.67,5.67,0,0,1-5.66,5.67H188.38V270h33.39v16.65a1.43,1.43,0,0,1-1.43,1.42h-32v85.57H324.55a5.67,5.67,0,0,0,4.62-2.4,5.53,5.53,0,0,0,1.06-3.3V355.27a5.71,5.71,0,0,0-4.3-5.5,6.12,6.12,0,0,0-1.72-.26h4.41a2.8,2.8,0,0,1,1.76.63l.05,0c.05.05.11.09.14.13a2.39,2.39,0,0,1,.38.46l.12.17a3,3,0,0,0,.15.31,3,3,0,0,1,.22,1.11V400.9a2.93,2.93,0,0,1-.22,1.11c-.05.11-.11.2-.15.31l-.46.59,0,0-.14.13-.05,0a2.85,2.85,0,0,1-1.76.62H188.38V417H328.56s11-1,15-10,9-69,9-69l-5-3h5l2-26.69s-9.63-10.6-10.21-10.6c.32-.27.32-.27.41-.5s3.83-60.46,3.83-60.46a.54.54,0,0,0-.54-.58h-9.44l1-49.41ZM225.38,19.67a4,4,0,0,1,4-4h98.06a4,4,0,0,1,4,4V76.75a4,4,0,0,1-4,4H229.38a4,4,0,0,1-4-4Zm.76,134.6-9.88,18.78,3-57.35H324l3,38.57ZM333.85,278.76a5.68,5.68,0,0,1-5.66,5.67H262.38a5.68,5.68,0,0,1-5.66-5.67V172a5.67,5.67,0,0,1,5.66-5.66h65.81a5.67,5.67,0,0,1,5.66,5.66Z"/>
          <polygon class="cls-18" points="190.43 391.08 320.63 391.6 323.63 394.6 325.63 376.6 321.63 376.6 320.63 385.6 190.43 384.57 190.43 384.56 188.38 384.55 188.38 391.07 190.43 391.08 190.43 391.08"/>
          <path class="cls-17" d="M211.24,82a4.49,4.49,0,0,0,4.5-4.49V16.55a4.49,4.49,0,0,0-4.5-4.5H188.38V82Z"/>
     </g>
     <g id="camera-left">
          <polygon class="cls-18" points="69.63 383.6 68.63 376.6 63.63 376.6 64.63 396.6 71.63 390.6 188.38 391.07 188.38 384.55 69.63 383.6"/>
          <path class="cls-18" d="M52.25,403.74a2.83,2.83,0,0,1-2.83-2.83V368a5.54,5.54,0,0,0,1.06,3.28l.42.51a5.65,5.65,0,0,0,4.2,1.87H188.38V288H161.72a1.43,1.43,0,0,1-1.42-1.42V270h28.08v-8.44H47.86a5.67,5.67,0,0,1-5.67-5.67V187.65A5.67,5.67,0,0,1,47.86,182H188.38V82H50.3a4.49,4.49,0,0,1-4.49-4.49V16.55a4.49,4.49,0,0,1,4.49-4.5H188.38V0H32.6a4,4,0,0,0-4,3.82l-5,97.19s-1.36,4.78.43,8.71A8,8,0,0,0,25.62,112l3,71s1,6,5,6,1,45,1,45l-4.32,1.15-.49-.15H26.05a.9.9,0,0,0-.88,1L29,280.11a.9.9,0,0,1-.82,1L11.05,282c-12,1-11,11-11,11l1,30.73a.83.83,0,0,0,.16.47l4.71,6.57a1,1,0,0,1,.15.51v3.09a.85.85,0,0,0,.58.82L28,342.6l.95-.25L35.13,404s3,13,14,13H188.38V403.74Zm-13-249.47,3-38.57H155l2,57.35-4-18.78Z"/>
     </g>

</svg>