<svg xmlns="http://www.w3.org/2000/svg" viewBox="0 0 296.01 346">
     <path class="cls-1" d="M285.32,155s1.66-2.48,2.5-12.42,2.49-50.5,2.49-50.5l5.7-7.31V80.85L293.66,4.23A3.34,3.34,0,0,0,290.32,1H158V0h-131a3.34,3.34,0,0,0-3.33,3.17L19.6,83.81s-1.13,4,.36,7.23a6.57,6.57,0,0,0,1.3,1.9l2.49,58.91s.83,5,4.15,5,.83,37.34.83,37.34l-3.59,1-.4-.12H21.62a.74.74,0,0,0-.73.79l3.2,36.63a.74.74,0,0,1-.68.79L9.17,234c-10,.83-9.15,9.13-9.15,9.13l.82,25.5A.73.73,0,0,0,1,269l3.91,5.45a.77.77,0,0,1,.13.42v2.57a.71.71,0,0,0,.48.68l17.7,6.14.79-.21,5.17,51.15S31.65,346,40.8,346H272.62s9.12-.83,12.43-8.29,7.47-57.22,7.47-57.22L288.37,278h4.19l1.64-22.14s-8-8.8-8.47-8.8c.27-.22.27-.22.34-.41s3.18-50.17,3.18-50.17a.45.45,0,0,0-.45-.48H281l.84-41ZM187,16.32A3.32,3.32,0,0,1,190.33,13h81.36A3.32,3.32,0,0,1,275,16.32V63.68A3.32,3.32,0,0,1,271.69,67H190.33A3.32,3.32,0,0,1,187,63.68ZM181.9,96h87l2.46,32H187.64l-8.2,15.59ZM38,13.73A3.73,3.73,0,0,1,41.74,10H175.28A3.73,3.73,0,0,1,179,13.73V64.27A3.73,3.73,0,0,1,175.28,68H41.74A3.73,3.73,0,0,1,38,64.27ZM32.61,128l2.46-32h93.54l1.64,47.59L127,128Zm7.1,89a4.71,4.71,0,0,1-4.7-4.7V155.7a4.71,4.71,0,0,1,4.7-4.7h146.6a4.71,4.71,0,0,1,4.7,4.7v56.6a4.71,4.71,0,0,1-4.7,4.7ZM184,224v13.82a1.18,1.18,0,0,1-1.18,1.18H134.19a1.18,1.18,0,0,1-1.18-1.18V224Zm91,108.64a2.55,2.55,0,0,1-.18.92c0,.09-.09.17-.13.26l-.38.49,0,0-.12.11,0,0a2.34,2.34,0,0,1-1.46.52H43.36A2.36,2.36,0,0,1,41,332.65V305.3a4.56,4.56,0,0,0,.88,2.72c.11.15.23.29.35.43A4.68,4.68,0,0,0,45.72,310H269.29a4.73,4.73,0,0,0,3.84-2,4.64,4.64,0,0,0,.88-2.74V294.78a4.74,4.74,0,0,0-3.57-4.56A4.86,4.86,0,0,0,269,290h3.66a2.34,2.34,0,0,1,1.46.52l0,0a1.31,1.31,0,0,1,.12.11,1.91,1.91,0,0,1,.31.38.71.71,0,0,1,.1.14c0,.09.09.17.13.26a2.55,2.55,0,0,1,.18.92Zm2-101.34a4.71,4.71,0,0,1-4.7,4.7h-54.6a4.71,4.71,0,0,1-4.7-4.7V142.7a4.71,4.71,0,0,1,4.7-4.7h54.6a4.71,4.71,0,0,1,4.7,4.7Z"/>
     <polygon class="cls-1" points="266.04 319.95 158.01 319.09 158.01 319.09 57.78 318.29 56.95 312.48 52.8 312.48 53.63 329.08 59.44 324.1 158.01 324.49 158.01 324.49 266.04 324.93 268.53 327.42 270.19 312.48 266.87 312.48 266.04 319.95"/>
</svg>